<svg xmlns="http://www.w3.org/2000/svg" width="1175.134" height="456.669" viewBox="0 0 1175.134 456.669">
  <path id="Path_2" data-name="Path 2" d="M798.55,95.2a15.1,15.1,0,0,1,2.2,8.6,15.966,15.966,0,0,1-3,8.6q-10,13.2-21.2,25.8t-21.2,25.4q-14.4,18-28.8,36.2t-28.4,37q-26.8,35.2-52.8,71.2t-49.6,74q-12,18.8-23.2,38.2a363.954,363.954,0,0,0-20,40.2q-3.6,9.2-6.4,18.6a152.006,152.006,0,0,0-4.4,19.4,11.7,11.7,0,0,0-.4,4q0,3.2-1.2,3.6-1.6.4-2.6-2.2t-1.4-3.4a32.6,32.6,0,0,1-2.4-10.2,75.72,75.72,0,0,1,0-11,165.305,165.305,0,0,1,9.4-41.8q7.4-20.2,16.6-39.4,9.2-19.6,19.8-38t21.8-36.4q12.8-20.4,28.4-42.6t32.2-44.4q16.6-22.2,33.2-43.4t31.4-40q-15.6,10.4-33,23.4T658.15,203q-18,13.4-35.4,26.6t-32.2,24q-37.6,27.6-73.2,56t-68.8,60.8q-14.8,14-28.2,29.2a214.449,214.449,0,0,0-23.8,32.8l-2.4,4a27.982,27.982,0,0,0-2,4q-2.4,2.8-3.4-1a13.852,13.852,0,0,1-.6-5.8,137.725,137.725,0,0,1,6.6-26q4.6-12.8,8.6-25.6a872.134,872.134,0,0,1,39-89q21.8-43,45.4-87.8-69.6,67.2-135.2,136.8T224.15,484.8q-7.6,8.4-14.8,16.6T194.55,518q-2,2.4-5.6,6l-7,7q-3.4,3.4-6,5.8t-3,2.4q-.8,0,.2-2.4t2.4-5.4a58.146,58.146,0,0,1,3.4-6.2q2-3.2,3.2-5.2,8.8-14,18.2-27.6t19.8-27.2q28-38,58-74.4t62.4-71.6q64-70.4,134.4-135.6,9.2-8.8,18-16.8t18-16q3.6-2.8,7.2-5.2a12.042,12.042,0,0,1,8.8-1.6,15.462,15.462,0,0,1,7.6,4.8,11.759,11.759,0,0,1,3.2,8,11.149,11.149,0,0,1-1.2,5.4q-1.2,2.2-2.4,4.6-9.6,18.8-19.8,37.2t-20.6,38q-21.2,38.8-42,78.2t-40.8,79.4a357.219,357.219,0,0,1,40.8-50.2q22.8-23.4,46.8-45.4,54-49.2,111-92.8t116.6-85.6a287.785,287.785,0,0,1,24.8-16.8,279.294,279.294,0,0,0,25.2-17.2,19.619,19.619,0,0,1,8.4-2.8,12.725,12.725,0,0,1,7.6.8A13,13,0,0,1,798.55,95.2ZM755.15,381q.6.9-1.8,2.85t-3,2.55q-13.5,11.4-26.7,21.3-7.8,6.3-15.45,13.2t-15.15,13.8l-7.2,6.3a27.3,27.3,0,0,1-3,2.1,16.582,16.582,0,0,1-3.3,1.5,8.315,8.315,0,0,1-6.6-1.65,8.917,8.917,0,0,1-3.6-5.85,15.3,15.3,0,0,1,1.2-8.25,65.4,65.4,0,0,1,3.9-7.95,137.449,137.449,0,0,1,9.9-16.8q5.4-7.8,13.5-18-8.4,6.9-16.2,13.8l-15.6,13.8q-6.6,6-13.2,11.7t-13.5,11.1q-1.8,1.5-4.35,3.3a33.888,33.888,0,0,1-5.1,3,12.2,12.2,0,0,1-5.25,1.2,8.356,8.356,0,0,1-5.1-1.8,9.788,9.788,0,0,1-3.75-8.55,35.616,35.616,0,0,1,2.4-11.55,66.762,66.762,0,0,1,5.55-11.4q3.3-5.4,5.1-8.4a173.633,173.633,0,0,1,17.55-22.65,186.443,186.443,0,0,1,20.55-19.35,127.026,127.026,0,0,1,12.9-9.6,58.027,58.027,0,0,1,14.7-6.9,6.757,6.757,0,0,0,1.35-.3,7.612,7.612,0,0,1,2.1-.3,7.118,7.118,0,0,1,1.65.15q.6.15-.3,1.05a11.407,11.407,0,0,1-2.55,2.4,19.116,19.116,0,0,0-2.85,2.4,66.909,66.909,0,0,0-6.15,5.7q-2.85,3-5.85,6.3-6.3,7.2-12.45,15.45T657.35,393.6q-6,8.7-11.7,17.4t-11.1,16.8a439.624,439.624,0,0,0,48.15-36q23.85-20.4,49.35-40.8,3.6-3,8.7-6.9t7.2-4.5a4.25,4.25,0,0,1,3.9,1.35,3.732,3.732,0,0,1,.9,3.75,14.725,14.725,0,0,1-2.7,4.2q-2.4,3-3.3,4.2t-4.35,5.7q-3.45,4.5-8.4,10.8t-10.5,13.5q-5.55,7.2-10.5,13.8t-8.55,11.7a69.129,69.129,0,0,0-4.5,6.9q.3-.3,4.5-3.15t10.05-7.05q5.85-4.2,12.75-8.85t12.9-8.4q6-3.75,10.2-5.85T755.15,381Zm55.2-42a10.175,10.175,0,0,1-1.2,6,22.282,22.282,0,0,1-3.75,4.95q-2.25,2.25-4.8,4.35a16.724,16.724,0,0,0-4.05,4.8,77.075,77.075,0,0,0-5.25,10.8q-2.25,5.7-4.05,11.4-1.8,6.3-3.45,12.15t-3.15,11.85a68.852,68.852,0,0,1-9.3,19.8,43.845,43.845,0,0,1-15.9,14.4q-11.4,5.7-22.5,4.8a26.215,26.215,0,0,1-9.9-3.3,6.576,6.576,0,0,1-1.8-.9q-1.5-.9-3.15-1.8a11.746,11.746,0,0,1-2.7-1.95q-1.05-1.05-.75-1.65t3.3.45a18.469,18.469,0,0,0,3.6,1.05,29.515,29.515,0,0,0,8.7,1.2,27.542,27.542,0,0,0,15.3-5.7,44.39,44.39,0,0,0,10.35-11.1,32.163,32.163,0,0,0,5.55-13.8q1.2-6.9,2.25-14.25t1.95-15.15a183.4,183.4,0,0,1-18.6,14.7q-11.1,7.8-21.75,14.25t-18.45,10.5q-7.8,4.05-8.7,3.15-.6-.9,7.95-7.35t20.7-15.9q12.15-9.45,24.9-20.85a134.446,134.446,0,0,0,20.55-22.5q2.7-4.2,5.4-8.25t6-8.25a37.09,37.09,0,0,1,7.35-5.7,17.046,17.046,0,0,1,8.85-2.4,9.819,9.819,0,0,1,7.2,3A10.986,10.986,0,0,1,810.35,339Zm53.1,42.3a13.7,13.7,0,0,1,3.15-1.8q2.55-1.2,2.85-.6v.45q0,.15-.9,1.05-11.1,10.2-22.65,19.05T822.95,417.9q-4.8,4.2-11.85,10.8t-11.55,10.8q-1.8,1.5-4.05,3.15a22.717,22.717,0,0,1-4.8,2.7,10.111,10.111,0,0,1-5.1.75,9.833,9.833,0,0,1-5.25-2.7q-2.4-2.4-1.65-6.6a31.448,31.448,0,0,1,2.25-7.5,95.146,95.146,0,0,1,9.3-16.95q6.3-9.45,14.25-19.35T821,373.65q8.55-9.45,16.05-16.95t12.9-12.3q5.4-4.8,7.2-5.4a3.978,3.978,0,0,1,3.3-.3,2.976,2.976,0,0,1,1.05.9q.45.6-.15,1.8-3.9,7.2-9.3,15.6t-11.7,17.55q-6.3,9.15-13.05,18.9T814.25,413.4q2.7-2.1,7.2-5.25t7.2-4.95q8.7-5.7,17.1-11.25T863.45,381.3Zm33.6-90.3a7.621,7.621,0,0,1,.15,4.95,15.449,15.449,0,0,1-2.4,4.8,24.035,24.035,0,0,1-3.75,4.05,16.523,16.523,0,0,1-4.2,2.7,15.924,15.924,0,0,1-4.35,1.35,20.912,20.912,0,0,1-4.95.3,13.467,13.467,0,0,1-4.5-1.05,5.474,5.474,0,0,1-3-3.3,9.44,9.44,0,0,1,1.2-9.15,19.993,19.993,0,0,1,6.9-6.45,15.632,15.632,0,0,1,4.5-1.95,20.64,20.64,0,0,1,5.55-.75,14.839,14.839,0,0,1,5.25.9A6.365,6.365,0,0,1,897.05,291Zm62.1,38.1q.9,1.2-2.85,6t-8.7,10.35q-4.95,5.55-9.6,10.2l-5.55,5.55q-6.6,6.9-13.5,13.65t-13.8,13.35q-.6.6-3.3,3t-6.15,5.4q-3.45,3-6.75,5.85a57.385,57.385,0,0,1-5.1,4.05q-.3.3-.9,4.35t-1.2,6.75q-.6,4.5-1.8,9.9t-4.5,15.9a14.809,14.809,0,0,0-1.05,3,3.233,3.233,0,0,1-1.95,2.4q-.9.6-1.5-1.05A28.485,28.485,0,0,1,869.9,444a30.527,30.527,0,0,1-.6-4.05q-.15-1.95-.15-2.55-.6-4.8-.75-9.45t-.45-9.15q-10.5,7.5-21.45,14.25T824.15,445.8a20.642,20.642,0,0,0-2.55,1.2,20.642,20.642,0,0,1-2.55,1.2q-.6.3-1.8.75t-.6-1.05a24.2,24.2,0,0,1,3-3.75q2.1-2.25,3.9-4.05,4.2-4.5,8.55-9t8.55-8.7q6.9-6.9,13.8-13.65t14.1-13.65q.3-2.1,1.05-9t1.65-15.3q.9-8.4,1.95-16.65t1.95-13.05a29.275,29.275,0,0,0,.75-3.3q.45-2.4,1.95-.9a7.076,7.076,0,0,1,1.95,3.3,25.639,25.639,0,0,0,1.05,3.3,113.227,113.227,0,0,1,3.3,18.3q.9,9.3.9,18.6a481.015,481.015,0,0,1,39.3-31.2q6.9-4.8,14.4-9.6t15-8.7l2.7-1.35Q958.55,328.5,959.15,329.1Zm382.5-158.4a2.6,2.6,0,0,1-.75,2.4,16.361,16.361,0,0,1-2.7,2.4,30.239,30.239,0,0,1-3.3,2.1,17.3,17.3,0,0,1-2.55,1.2,75.1,75.1,0,0,1-8.55,4.2q-4.35,1.8-8.55,3.3-4.2,1.8-7.8,3.45a70.177,70.177,0,0,0-7.5,4.05q-12.6,6.9-24.6,14.85t-24,16.05q-16.2,11.4-32.1,22.95t-32.1,23.55q-56.7,42.6-110.25,87.75T971.15,453.3q-7.5,6.9-14.7,13.8t-14.1,14.7a393.651,393.651,0,0,0,49.2-6.15q24.6-4.65,48.9-9.75,18.9-3.9,37.5-7.95t37.5-8.25q8.7-1.8,17.1-3.75t17.1-3.45q5.4-1.2,10.65-2.1t10.65-1.5q.9,0,.6.45a3.255,3.255,0,0,1-1.05.9q-.75.45-1.8,1.05a4.074,4.074,0,0,1-1.35.6q-6.3,2.7-13.5,5.1-8.1,3-16.35,5.7t-16.65,5.4q-4.2,1.5-15,4.95t-25.8,8.1q-15,4.65-32.7,9.75t-35.7,9.45q-18,4.35-34.95,7.5a222.651,222.651,0,0,1-30.6,3.75q-13.65.6-22.65-1.95t-10.8-9.15a10.9,10.9,0,0,1,.15-6.45,30.983,30.983,0,0,1,2.85-6.15,42.763,42.763,0,0,1,5.55-7.65q3.15-3.45,6.45-7.05,6.9-7.5,13.95-14.4T955.85,435q15.3-14.1,30.6-27.3t31.2-26.4q31.8-26.4,64.05-51t65.85-48q32.4-23.1,65.55-44.4t68.55-39.9q-18.9,5.7-37.65,10.5t-37.65,9q-19.8,4.8-39.3,8.85t-39.3,7.65q-15.3,3-30.45,5.7t-30.45,4.2a13.845,13.845,0,0,0-1.95.15,3.8,3.8,0,0,1-2.25-.45q-.6,0-.3-.45a4.926,4.926,0,0,1,.6-.75,54.118,54.118,0,0,1,10.65-4.5q5.85-1.8,10.95-3.3l36-10.8q38.7-11.4,76.8-22.05t77.4-20.25q9.6-2.4,19.05-4.5t19.05-4.2q1.2-.3,5.7-1.2t9.45-1.65a80.445,80.445,0,0,1,9-.9Q1341.05,168.9,1341.65,170.7Z" transform="translate(-169.594 -85.531)" fill="none" stroke="#fff" stroke-width="6"/>
</svg>
